<svg width="400" height="400" viewBox="0 0 400 400" fill="none" xmlns="http://www.w3.org/2000/svg">
<rect width="400" height="400" fill="white"/>
<g filter="url(#filter0_d_1_3)">
<path d="M99.0368 279.869V297.21C97.6483 297.21 96.5203 296.865 95.5657 296.175C94.6112 295.485 94.0906 294.708 94.0906 293.759V287.289L87.0618 292.897L79.9462 287.289V293.759C79.9462 294.708 79.4255 295.571 78.471 296.175C77.5165 296.865 76.3884 297.21 75 297.21V279.869C76.4752 279.869 77.8636 280.386 79.0784 281.335L87.0618 287.634C91.5741 284.01 94.1774 281.939 94.9583 281.335C96.26 280.3 97.6483 279.869 99.0368 279.869Z" fill="url(#paint0_linear_1_3)"/>
<path d="M131.838 283.32C131.838 282.371 132.358 281.508 133.313 280.904C134.354 280.214 135.482 279.869 136.784 279.869V297.21C134.354 297.21 132.185 296.434 130.276 294.967L119.689 286.081V293.759C119.689 294.708 119.168 295.571 118.214 296.175C117.259 296.865 116.131 297.21 114.743 297.21V279.869C117.259 279.869 119.429 280.645 121.338 282.198C122.293 282.975 125.764 285.908 131.838 291.085V283.32Z" fill="url(#paint1_linear_1_3)"/>
<path d="M163.337 288.496C163.337 290.136 163.077 291.516 162.556 292.638C162.036 293.759 161.081 294.708 159.866 295.398C157.957 296.52 155.093 297.038 151.189 297.038H142.251V283.492C142.251 282.543 142.771 281.68 143.726 281.077C144.767 280.386 145.895 280.041 147.197 280.041H151.189C154.746 280.041 157.523 280.645 159.606 281.767C162.122 283.147 163.337 285.39 163.337 288.496ZM151.189 293.587C153.965 293.587 155.788 293.242 156.829 292.638C157.87 291.947 158.391 290.567 158.391 288.583C158.391 286.598 157.784 285.218 156.482 284.528C155.441 283.924 153.705 283.579 151.189 283.579H147.11V293.673H151.189V293.587Z" fill="url(#paint2_linear_1_3)"/>
<path d="M184.597 283.32C184.597 282.371 185.118 281.508 186.072 280.904C187.114 280.214 188.242 279.869 189.543 279.869V297.21C187.114 297.21 184.944 296.434 183.035 294.967L172.449 286.081V293.759C172.449 294.708 171.928 295.571 170.974 296.175C170.019 296.865 168.891 297.21 167.502 297.21V279.869C170.019 279.869 172.188 280.645 174.097 282.198C175.052 282.975 178.523 285.908 184.597 291.085V283.32Z" fill="white"/>
<path d="M197.006 294.967C194.663 293.328 193.448 291.171 193.448 288.496C193.448 285.735 194.663 283.579 197.006 282.026C199.175 280.559 201.952 279.869 205.423 279.869C208.981 279.869 211.845 280.559 213.927 282.026C216.27 283.579 217.485 285.735 217.485 288.496C217.485 291.171 216.27 293.328 213.927 294.967C211.758 296.434 208.894 297.21 205.423 297.21C202.039 297.21 199.175 296.434 197.006 294.967ZM198.395 288.496C198.395 290.136 199.002 291.43 200.304 292.293C201.518 293.242 203.254 293.673 205.423 293.673C210.196 293.673 212.539 291.947 212.539 288.496C212.539 285.045 210.196 283.32 205.423 283.32C200.737 283.32 198.395 285.045 198.395 288.496Z" fill="white"/>
<path d="M242.737 288.496C242.737 290.136 242.476 291.516 241.956 292.638C241.435 293.759 240.48 294.708 239.266 295.398C237.357 296.52 234.493 297.038 230.588 297.038H221.65V283.492C221.65 282.543 222.171 281.68 223.125 281.077C224.167 280.386 225.295 280.041 226.596 280.041H230.675C234.233 280.041 237.009 280.645 239.092 281.767C241.435 283.147 242.737 285.39 242.737 288.496ZM230.588 293.587C233.365 293.587 235.187 293.242 236.228 292.638C237.27 291.947 237.79 290.567 237.79 288.583C237.79 286.598 237.183 285.218 235.881 284.528C234.84 283.924 233.105 283.579 230.588 283.579H226.51V293.673H230.588V293.587Z" fill="white"/>
<path d="M251.848 290.222V293.5H265.125C265.125 294.449 264.604 295.312 263.649 295.916C262.695 296.606 261.567 296.952 260.178 296.952H246.902V283.492C246.902 282.543 247.423 281.68 248.377 281.077C249.418 280.386 250.546 280.041 251.848 280.041H265.125C265.125 280.99 264.604 281.853 263.649 282.457C262.695 283.147 261.567 283.492 260.178 283.492H251.848V286.771H263.997C263.997 287.72 263.476 288.583 262.521 289.187C261.567 289.877 260.439 290.222 259.05 290.222H251.848Z" fill="white"/>
<path d="M290.464 297.038C289.161 297.297 287.86 297.21 286.732 296.779C285.516 296.348 284.648 295.658 284.303 294.795L283.173 292.379H274.583L273.455 294.795C273.021 295.744 272.154 296.434 271.025 296.779C269.811 297.21 268.509 297.297 267.294 297.038L274.063 282.284C274.843 280.645 276.405 279.782 278.834 279.869C281.265 279.782 282.826 280.645 283.608 282.284L290.464 297.038ZM276.146 288.842H281.525L278.834 282.975L276.146 288.842Z" fill="url(#paint3_linear_1_3)"/>
<path d="M294.108 290.653C294.108 289.704 294.627 288.842 295.583 288.238C296.623 287.547 297.753 287.202 299.054 287.202V293.673C299.054 294.622 298.533 295.485 297.579 296.089C296.623 296.779 295.496 297.124 294.108 297.124V290.653Z" fill="url(#paint4_linear_1_3)"/>
<path d="M325 296.779C323.785 297.21 322.569 297.297 321.268 297.038C319.966 296.779 318.925 296.175 318.318 295.312L314.933 290.74H309.207V293.673C309.207 294.622 308.686 295.398 307.732 296.089C306.776 296.779 305.648 297.124 304.261 297.124V283.406C304.261 282.457 304.78 281.594 305.736 280.99C306.776 280.3 307.906 279.955 309.207 279.955H317.102C319.098 279.955 320.835 280.473 322.224 281.508C323.611 282.543 324.305 283.837 324.305 285.304C324.305 286.857 323.525 288.065 321.877 289.187C321.094 289.618 320.402 289.963 319.881 290.136L325 296.779ZM309.293 283.492V287.288H316.236C318.406 287.288 319.533 286.684 319.533 285.39C319.533 284.096 318.751 283.492 317.19 283.492H309.293Z" fill="white"/>
<path d="M296.623 285.39C295.148 285.39 293.847 284.182 293.847 282.716C293.847 281.249 295.062 280.041 296.623 280.041C298.1 280.041 299.401 281.249 299.401 282.716C299.401 284.182 298.186 285.39 296.623 285.39ZM296.623 281.68C296.016 281.68 295.583 282.112 295.583 282.716C295.583 283.32 296.016 283.751 296.623 283.751C297.232 283.751 297.665 283.32 297.665 282.716C297.665 282.112 297.232 281.68 296.623 281.68Z" fill="url(#paint5_linear_1_3)"/>
<path d="M107.02 285.39C105.545 285.39 104.243 284.182 104.243 282.716C104.243 281.249 105.458 280.041 107.02 280.041C108.495 280.041 109.797 281.249 109.797 282.716C109.797 284.182 108.495 285.39 107.02 285.39ZM107.02 281.68C106.413 281.68 105.979 282.112 105.979 282.716C105.979 283.32 106.413 283.751 107.02 283.751C107.628 283.751 108.061 283.32 108.061 282.716C108.061 282.112 107.628 281.68 107.02 281.68Z" fill="url(#paint6_linear_1_3)"/>
<path d="M104.59 290.653C104.59 289.704 105.111 288.842 106.066 288.238C107.107 287.547 108.235 287.202 109.537 287.202V293.673C109.537 294.622 109.016 295.485 108.061 296.089C107.107 296.779 105.979 297.124 104.59 297.124V290.653Z" fill="url(#paint7_linear_1_3)"/>
<path d="M274.931 160.806C267.207 127.503 238.051 103 205.25 103C178.176 103 153.532 118.185 141.296 141.911C139.821 141.739 138.259 141.652 136.611 141.652C102.595 141.652 75 169.175 75 202.909C75 217.404 81.4214 231.64 93.1361 243.114L101.293 234.832C91.8344 225.6 86.6279 214.212 86.6279 202.909C86.6279 175.473 109.103 153.213 136.611 153.213C138.78 153.213 140.949 153.559 143.292 153.904L148.325 154.594L150.061 150.539C159.606 128.711 181.3 114.561 205.25 114.561C233.539 114.561 259.571 137.856 264.43 167.535L265.212 172.54L270.331 172.367C270.765 172.367 271.199 172.281 271.72 172.195C295.496 172.281 313.372 188.932 313.372 211.019C313.372 234.746 296.19 252.605 273.455 252.605C273.368 252.605 272.067 252.605 270.678 252.605H262.782L239.005 183.583L238.832 183.065C237.617 180.391 235.014 178.838 232.063 179.01C229.2 179.183 226.857 180.995 225.989 183.756L203.948 246.997L186.593 208.258C185.639 205.584 183.209 203.858 180.258 203.772C177.221 203.686 174.705 205.411 173.664 208.086L152.924 252.605H144.594C143.032 248.377 138.867 245.271 134.007 245.271C127.759 245.271 122.726 250.275 122.726 256.488C122.726 262.7 127.759 267.703 134.007 267.703C137.218 267.703 140.168 266.323 142.251 264.166H160.3L179.911 222.063L197.874 262.182C198.828 264.856 201.345 266.668 204.208 266.668C204.295 266.668 204.295 266.668 204.382 266.668C207.419 266.668 210.022 264.77 210.89 261.923L232.324 200.321L254.278 263.994L267.902 264.08C267.988 264.08 269.377 264.08 270.765 264.08H273.455C302.784 264.08 325 241.216 325 210.933C325 183.411 303.74 162.359 274.931 160.806ZM134.094 262.009C131.057 262.009 128.627 259.593 128.627 256.574C128.627 253.554 131.057 251.138 134.094 251.138C137.131 251.138 139.561 253.554 139.561 256.574C139.561 259.593 137.044 262.009 134.094 262.009Z" fill="url(#paint8_linear_1_3)"/>
<path d="M108.842 257.868C103.723 257.868 99.4706 253.727 99.4706 248.55C99.4706 243.46 103.636 239.318 108.842 239.318C114.049 239.318 118.127 243.46 118.127 248.55C118.127 253.727 113.962 257.868 108.842 257.868ZM108.842 245.271C107.02 245.271 105.458 246.738 105.458 248.636C105.458 250.534 106.933 252.001 108.842 252.001C110.665 252.001 112.227 250.534 112.227 248.636C112.227 246.738 110.665 245.271 108.842 245.271Z" fill="url(#paint9_linear_1_3)"/>
<path d="M126.631 240.785C119.776 240.785 114.309 235.263 114.309 228.534C114.309 221.804 119.863 216.282 126.631 216.282C133.4 216.282 138.953 221.804 138.953 228.534C138.953 235.263 133.4 240.785 126.631 240.785ZM126.631 221.977C122.987 221.977 120.123 224.91 120.123 228.447C120.123 231.985 123.074 234.918 126.631 234.918C130.276 234.918 133.139 231.985 133.139 228.447C133.139 224.91 130.189 221.977 126.631 221.977Z" fill="url(#paint10_linear_1_3)"/>
</g>
<defs>
<filter id="filter0_d_1_3" x="71" y="103" width="258" height="202.211" filterUnits="userSpaceOnUse" color-interpolation-filters="sRGB">
<feFlood flood-opacity="0" result="BackgroundImageFix"/>
<feColorMatrix in="SourceAlpha" type="matrix" values="0 0 0 0 0 0 0 0 0 0 0 0 0 0 0 0 0 0 127 0" result="hardAlpha"/>
<feOffset dy="4"/>
<feGaussianBlur stdDeviation="2"/>
<feComposite in2="hardAlpha" operator="out"/>
<feColorMatrix type="matrix" values="0 0 0 0 0 0 0 0 0 0 0 0 0 0 0 0 0 0 0.25 0"/>
<feBlend mode="normal" in2="BackgroundImageFix" result="effect1_dropShadow_1_3"/>
<feBlend mode="normal" in="SourceGraphic" in2="effect1_dropShadow_1_3" result="shape"/>
</filter>
<linearGradient id="paint0_linear_1_3" x1="193.823" y1="30.1219" x2="214.337" y2="496.395" gradientUnits="userSpaceOnUse">
<stop stop-color="#FC4F4F"/>
<stop offset="0.5" stop-color="#CC3F42"/>
<stop offset="1" stop-color="#9C3036"/>
</linearGradient>
<linearGradient id="paint1_linear_1_3" x1="192.21" y1="12.5474" x2="211.026" y2="478.949" gradientUnits="userSpaceOnUse">
<stop stop-color="#FC4F4F"/>
<stop offset="0.5" stop-color="#CC3F42"/>
<stop offset="1" stop-color="#9C3036"/>
</linearGradient>
<linearGradient id="paint2_linear_1_3" x1="189.34" y1="-3.66981" x2="208.077" y2="472.133" gradientUnits="userSpaceOnUse">
<stop stop-color="#FC4F4F"/>
<stop offset="0.5" stop-color="#CC3F42"/>
<stop offset="1" stop-color="#9C3036"/>
</linearGradient>
<linearGradient id="paint3_linear_1_3" x1="203.229" y1="18.1444" x2="196.622" y2="510.535" gradientUnits="userSpaceOnUse">
<stop stop-color="#FC4F4F"/>
<stop offset="0.5" stop-color="#CC3F42"/>
<stop offset="1" stop-color="#9C3036"/>
</linearGradient>
<linearGradient id="paint4_linear_1_3" x1="212.328" y1="-184.372" x2="208.029" y2="675.323" gradientUnits="userSpaceOnUse">
<stop stop-color="#FC4F4F"/>
<stop offset="0.5" stop-color="#CC3F42"/>
<stop offset="1" stop-color="#9C3036"/>
</linearGradient>
<linearGradient id="paint5_linear_1_3" x1="206.152" y1="-170.038" x2="189.547" y2="1424.36" gradientUnits="userSpaceOnUse">
<stop stop-color="#FC4F4F"/>
<stop offset="0.5" stop-color="#CC3F42"/>
<stop offset="1" stop-color="#9C3036"/>
</linearGradient>
<linearGradient id="paint6_linear_1_3" x1="181.211" y1="-169.092" x2="231.054" y2="1343.31" gradientUnits="userSpaceOnUse">
<stop stop-color="#FC4F4F"/>
<stop offset="0.5" stop-color="#CC3F42"/>
<stop offset="1" stop-color="#9C3036"/>
</linearGradient>
<linearGradient id="paint7_linear_1_3" x1="156.912" y1="-183.502" x2="169.824" y2="632.46" gradientUnits="userSpaceOnUse">
<stop stop-color="#FC4F4F"/>
<stop offset="0.5" stop-color="#CC3F42"/>
<stop offset="1" stop-color="#9C3036"/>
</linearGradient>
<linearGradient id="paint8_linear_1_3" x1="196.254" y1="54.0037" x2="205.591" y2="363.883" gradientUnits="userSpaceOnUse">
<stop stop-color="#FC4F4F"/>
<stop offset="0.5" stop-color="#CC3F42"/>
<stop offset="1" stop-color="#9C3036"/>
</linearGradient>
<linearGradient id="paint9_linear_1_3" x1="136.257" y1="-1734.59" x2="191.219" y2="1018.26" gradientUnits="userSpaceOnUse">
<stop stop-color="#FC4F4F"/>
<stop offset="0.5" stop-color="#CC3F42"/>
<stop offset="1" stop-color="#9C3036"/>
</linearGradient>
<linearGradient id="paint10_linear_1_3" x1="122.351" y1="63.3364" x2="129.068" y2="326.202" gradientUnits="userSpaceOnUse">
<stop stop-color="#FC4F4F"/>
<stop offset="0.5" stop-color="#CC3F42"/>
<stop offset="1" stop-color="#9C3036"/>
</linearGradient>
</defs>
</svg>
