<svg width="400" height="400" viewBox="0 0 400 400" fill="none" xmlns="http://www.w3.org/2000/svg">
<rect width="400" height="400" fill="white"/>
<g clip-path="url(#clip0_3_6)">
<mask id="mask0_3_6" style="mask-type:luminance" maskUnits="userSpaceOnUse" x="75" y="86" width="250" height="228">
<path d="M75 86H325V313.272H75V86Z" fill="white"/>
</mask>
<g mask="url(#mask0_3_6)">
<path d="M309.814 233.726C305.422 233.726 301.86 237.288 301.86 241.681C301.86 246.074 305.422 249.635 309.814 249.635C314.207 249.635 317.769 246.074 317.769 241.681C317.769 237.288 314.207 233.726 309.814 233.726Z" fill="#006DAD"/>
<path d="M90.185 265.545C94.5786 265.545 98.1385 269.106 98.1385 273.498C98.1385 277.892 94.5786 281.453 90.185 281.453C85.7913 281.453 82.2299 277.892 82.2299 273.498C82.2299 269.106 85.7913 265.545 90.185 265.545Z" fill="#006DAD"/>
<path d="M179.45 265.542H161.087C156.539 265.542 152.853 261.692 152.853 257.306C152.853 252.92 156.539 249.072 161.087 249.072H179.45C183.998 249.072 187.684 252.757 187.684 257.306C187.684 261.854 183.998 265.542 179.45 265.542ZM304.668 265.542H249.678C245.285 265.542 241.723 261.979 241.723 257.585C241.723 253.193 245.285 249.631 249.678 249.631H285.929C290.323 249.631 293.885 246.068 293.885 241.675C293.885 237.321 290.386 233.789 286.045 233.726H249.225C218.007 233.726 200.203 244.875 200.203 244.875C200.203 244.875 182.399 233.726 151.183 233.726H91.4069C87.0661 233.789 83.5672 237.321 83.5672 241.675C83.5672 246.068 87.1286 249.631 91.5223 249.631H133.288C137.682 249.631 141.243 253.193 141.243 257.585C141.243 261.979 137.682 265.542 133.288 265.542H114.241C109.849 265.542 106.288 269.103 106.288 273.495C106.288 277.889 109.849 281.452 114.241 281.452H122.286C126.68 281.452 130.241 285.013 130.241 289.407C130.241 293.799 126.68 297.362 122.286 297.362H114.24C109.846 297.362 106.286 300.922 106.286 305.317C106.286 309.711 109.846 313.272 114.24 313.272H162.687C167.082 313.272 170.642 309.711 170.642 305.317C170.642 300.922 167.082 297.362 162.687 297.362L156.791 297.346C152.402 297.346 148.844 293.632 148.844 289.399C148.844 285.166 152.402 281.452 156.791 281.452H227.946C232.335 281.452 235.893 285.01 235.893 289.399C235.893 293.786 232.335 297.346 227.946 297.346L199.371 297.362C194.977 297.362 191.416 300.922 191.416 305.317C191.416 309.711 194.977 313.272 199.371 313.272H283.29C287.684 313.272 291.245 309.711 291.245 305.317C291.245 300.922 287.684 297.362 283.29 297.362H275.244C270.85 297.362 267.288 293.799 267.288 289.407C267.288 285.013 270.85 281.452 275.244 281.452H304.668C309.062 281.452 312.625 277.889 312.625 273.495C312.625 269.103 309.062 265.542 304.668 265.542Z" fill="#006DAD"/>
<path d="M199.999 121.514L220.169 107.93L207.276 129.182L220.169 150.433L199.999 136.848L179.83 150.433L192.723 129.182L179.83 107.93L199.999 121.514Z" fill="#F6AB00"/>
<path d="M204.327 124.621L235.984 129.182L204.327 133.741L199.999 172.363L195.673 133.741L164.014 129.182L195.673 124.621L199.999 86.0003L204.327 124.621Z" fill="#F6AB00"/>
<path d="M199.999 221.947C187.016 205.121 168.413 196.438 148.414 188.594C135.382 183.483 97.072 169.9 82.8759 164.972L92.4554 186.966C113.266 191.591 138.129 196.688 146.281 198.601C157.873 201.324 184.639 208.569 199.999 221.947Z" fill="#ED6D00"/>
<path d="M153.788 172.787C145.65 167.564 96.9632 138.296 96.9552 138.306L102.21 160.842C121.549 168.775 145.537 179.034 151.406 182.078C165.203 189.234 187.024 198.461 199.127 219.085C190.237 195.175 169.773 183.046 153.788 172.787Z" fill="#ED6D00"/>
<path d="M168.316 158.909C162.922 154.066 150.854 142.593 116.96 116.29L118.188 138.779C132.141 148.247 150.953 160.969 155.814 164.465C175.242 178.443 192.085 190.511 199.398 216.238C198.144 187.376 181.44 170.685 168.316 158.909Z" fill="#ED6D00"/>
<path d="M199.999 221.947C212.983 205.121 231.587 196.438 251.585 188.594C264.617 183.483 302.928 169.9 317.123 164.972L307.543 186.966C286.733 191.591 261.87 196.688 253.718 198.601C242.127 201.324 215.36 208.569 199.999 221.947Z" fill="#ED6D00"/>
<path d="M246.211 172.787C254.349 167.564 303.037 138.296 303.044 138.306L297.789 160.842C278.45 168.775 254.463 179.034 248.593 182.078C234.797 189.234 212.975 198.461 200.872 219.085C209.761 195.175 230.226 183.046 246.211 172.787Z" fill="#ED6D00"/>
<path d="M231.682 158.909C237.077 154.066 249.145 142.593 283.039 116.29L281.81 138.779C267.858 148.247 249.045 160.969 244.185 164.465C224.757 178.443 207.913 190.511 200.601 216.238C201.855 187.376 218.559 170.685 231.682 158.909Z" fill="#ED6D00"/>
<path d="M199.999 221.966C198.92 221.331 170.06 200.67 74.9993 197.607L88.1098 222.133C144.567 222.133 183.319 227.479 199.999 237.581C216.681 227.479 255.432 222.133 311.89 222.133L324.999 197.607C229.939 200.67 201.079 221.331 199.999 221.966Z" fill="#2E4198"/>
</g>
</g>
<defs>
<clipPath id="clip0_3_6">
<rect width="250" height="227.272" fill="white" transform="translate(75 86)"/>
</clipPath>
</defs>
</svg>
